<svg width="16" height="16" viewBox="0 0 16 16" fill="none" xmlns="http://www.w3.org/2000/svg">
<path d="M13.2533 6.3519C13.4901 6.11512 13.6779 5.83402 13.806 5.52465C13.9342 5.21528 14.0001 4.88371 14.0001 4.54885C14.0001 4.21399 13.9342 3.88242 13.806 3.57305C13.6779 3.26368 13.4901 2.98259 13.2533 2.74581C13.0166 2.50903 12.7355 2.3212 12.4262 2.19306C12.1168 2.06492 11.7853 1.99896 11.4505 1.99896C11.1157 1.99896 10.7841 2.06492 10.4748 2.19306C10.1654 2.3212 9.88437 2.50903 9.64762 2.74581L3.63407 8.76236C3.34869 9.04761 3.1398 9.40018 3.02671 9.78752L2.02205 13.2328C1.99193 13.336 1.99012 13.4455 2.01682 13.5498C2.04353 13.654 2.09775 13.7491 2.17383 13.8252C2.2499 13.9013 2.34503 13.9555 2.44925 13.9823C2.55348 14.009 2.66296 14.0071 2.76624 13.977L6.21113 12.9723C6.59843 12.8592 6.95097 12.6502 7.23619 12.3648L13.2533 6.3519Z" stroke="#B1B1B1" style="stroke:#B1B1B1;stroke:color(display-p3 0.6941 0.6941 0.6941);stroke-opacity:1;" stroke-width="1.33356" stroke-linecap="round" stroke-linejoin="round"/>
</svg>
