<svg width="200" height="45" viewBox="0 0 200 45" fill="none" xmlns="http://www.w3.org/2000/svg">
<path d="M163.985 31.9981C163.985 32.8184 164.105 33.5332 164.349 34.1289C164.594 34.7292 164.99 35.1739 165.534 35.4763C166.078 35.7742 166.765 35.9255 167.595 35.9255C168.01 35.9255 168.402 35.907 168.78 35.8703C169.154 35.8336 169.532 35.7788 169.91 35.7009L169.8 43.3263C169.011 43.5508 168.218 43.7204 167.429 43.8304C166.641 43.9403 165.811 44 164.949 44L164.944 43.9954C161.071 43.9954 158.267 43.0238 156.538 41.0808C154.809 39.1378 153.942 36.2232 153.942 32.3326V3.79659H163.985V31.9981Z" fill="white" style="fill:white;fill-opacity:1;"/>
<path fill-rule="evenodd" clip-rule="evenodd" d="M186.346 15.0655C189.164 15.0655 191.594 15.6566 193.623 16.8297C195.652 18.0074 197.224 19.6619 198.335 21.7928C199.447 23.9237 200 26.467 200 29.4182V31.6042H181.353C181.479 32.3055 181.666 32.9211 181.915 33.4509C182.422 34.5369 183.22 35.3207 184.313 35.8065C185.406 36.2923 186.775 36.5349 188.431 36.5349C189.86 36.5349 191.345 36.3288 192.89 35.9164C194.43 35.5039 195.822 34.8714 197.063 34.0099L199.543 40.6823C198.114 41.6538 196.376 42.4466 194.324 43.0652C192.272 43.6839 190.215 43.9909 188.145 43.9909L188.154 43.9954C184.769 43.9954 181.846 43.3952 179.379 42.1991C176.916 41.003 175.026 39.3212 173.707 37.1537C172.388 34.9861 171.733 32.4426 171.733 29.5281C171.733 26.6136 172.365 24.1847 173.624 22.0171C174.883 19.8496 176.617 18.1495 178.816 16.9168C181.016 15.684 183.529 15.0655 186.346 15.0655ZM186.798 21.5683C185.632 21.5683 184.617 21.8385 183.75 22.3792C182.883 22.9199 182.238 23.7174 181.804 24.7622C181.554 25.366 181.376 26.0587 181.27 26.8383H191.741C191.65 25.1513 191.232 23.8784 190.492 23.0256C189.648 22.0541 188.412 21.5683 186.798 21.5683Z" fill="white" style="fill:white;fill-opacity:1;"/>
<path d="M69.4138 15.0696C71.2583 15.0696 73.0982 15.3307 74.9426 15.8532C76.7871 16.3756 78.2903 17.086 79.457 17.9842L76.7501 24.826C75.9201 24.1523 74.9241 23.6117 73.7575 23.1993C72.5909 22.7868 71.4796 22.5805 70.4283 22.5805C68.4731 22.5805 66.9469 23.19 65.8587 24.4044C64.7658 25.6188 64.2216 27.3281 64.2216 29.5324C64.2216 31.7366 64.7658 33.3451 65.8587 34.5778C66.9469 35.8105 68.4732 36.4291 70.4283 36.4291C71.4796 36.4291 72.5909 36.232 73.7575 35.8379C74.9241 35.4438 75.9201 34.8939 76.7501 34.1836L79.457 41.0805C78.2903 41.9421 76.7871 42.6432 74.9426 43.184C73.0982 43.7247 71.2583 43.9952 69.4138 43.9952C66.2921 43.9952 63.5761 43.4085 61.2613 42.2308C58.9465 41.053 57.1527 39.3712 55.8754 37.1853C54.5981 34.9994 53.9573 32.4286 53.9573 29.4774C53.9573 26.5262 54.5935 23.9185 55.8754 21.7693C57.1527 19.62 58.9511 17.9658 61.2613 16.8064C63.5761 15.647 66.2921 15.0696 69.4138 15.0696Z" fill="white" style="fill:white;fill-opacity:1;"/>
<path fill-rule="evenodd" clip-rule="evenodd" d="M23.1296 3.79659C26.3251 3.79659 28.9858 4.25486 31.1115 5.17137C33.2372 6.08789 34.8373 7.39403 35.9071 9.09418C36.9769 10.7943 37.5164 12.8245 37.5164 15.1799C37.5164 18.2823 36.8846 20.9173 35.6258 23.0848C34.367 25.2524 32.5041 26.8976 30.0418 28.0204C27.5794 29.1431 24.5406 29.7023 20.93 29.7023H12.5793L10.3797 43.3263H0V43.3217L6.31727 3.79659H23.1296ZM13.8243 21.788V21.7926H21.3267C23.4339 21.7926 25.0017 21.316 26.0392 20.3628C27.0721 19.4097 27.5933 17.9981 27.5933 16.1284C27.5932 14.6345 27.1228 13.521 26.1821 12.7924C25.2415 12.0638 23.7752 11.6972 21.7832 11.6972H15.4058L13.8243 21.788Z" fill="white" style="fill:white;fill-opacity:1;"/>
<path d="M50.7122 43.326H40.1621V34.3532H50.7122V43.326Z" fill="#B7E635" style="fill:#B7E635;fill:color(display-p3 0.7176 0.9020 0.2078);fill-opacity:1;"/>
<path fill-rule="evenodd" clip-rule="evenodd" d="M137.15 3.79253C140.345 3.79253 143.006 4.2508 145.132 5.16732C147.257 6.08383 148.857 7.38976 149.927 9.08988C151.002 10.79 151.537 12.8202 151.537 15.1756C151.537 18.2781 150.905 20.9132 149.646 23.0808C148.387 25.2483 146.524 26.8933 144.062 28.0161C141.6 29.1388 138.561 29.698 134.95 29.698H126.599L124.4 43.3222H114.02V43.3217H102.229L92.975 31.8285H92.8642V43.3217H82.8211V3.79659H92.8642V26.7831H92.975L102.114 15.739H113.905L102.974 28.8847L114.058 43.0815L120.337 3.79253H137.15ZM127.84 21.7883V21.7931H135.342C137.45 21.7931 139.017 21.3163 140.055 20.3631C141.088 19.4099 141.609 17.9986 141.609 16.1289C141.609 14.6349 141.138 13.5213 140.198 12.7927C139.257 12.0641 137.791 11.6974 135.799 11.6974H129.421L127.84 21.7883Z" fill="white" style="fill:white;fill-opacity:1;"/>
<path d="M50.4309 29.5873H40.3878V2H50.4309V29.5873Z" fill="#B7E635" style="fill:#B7E635;fill:color(display-p3 0.7176 0.9020 0.2078);fill-opacity:1;"/>
</svg>
